
            <svg xmlns="http://www.w3.org/2000/svg" xmlns:cc="http://creativecommons.org/ns#" xmlns:rdf="http://www.w3.org/1999/02/22-rdf-syntax-ns#" version="1.1" width="307.265625" height="161.9375">
              <defs>
                <style type="text/css">svg{background-color:#fff}text,tspan{font:12px Arial}path{fill-opacity:0;stroke-width:2px;stroke:#000}circle{fill:#6b6659;stroke-width:2px;stroke:#000}.anchor text,.any-character text{fill:#fff}.anchor rect,.any-character rect{fill:#6b6659}.escape text,.charset-escape text,.literal text{fill:#000}.escape rect,.charset-escape rect{fill:#bada55}.literal rect{fill:#dae9e5}.charset .charset-box{fill:#cbcbba}.subexp .subexp-label tspan,.charset .charset-label tspan,.match-fragment .repeat-label tspan{font-size:10px}.repeat-label{cursor:help}.subexp .subexp-label tspan,.charset .charset-label tspan{dominant-baseline:text-after-edge}.subexp .subexp-box{stroke:#908c83;stroke-dasharray:6,2;stroke-width:2px;fill-opacity:0}.quote{fill:#908c83}
          </style>
              </defs>
              <metadata>
                <rdf:rdf>
                  <cc:license rdf:about="http://creativecommons.org/licenses/by/3.0/">
                    <cc:permits rdf:resource="http://creativecommons.org/ns#Reproduction"></cc:permits>
                    <cc:permits rdf:resource="http://creativecommons.org/ns#Distribution"></cc:permits>
                    <cc:requires rdf:resource="http://creativecommons.org/ns#Notice"></cc:requires>
                    <cc:requires rdf:resource="http://creativecommons.org/ns#Attribution"></cc:requires>
                    <cc:permits rdf:resource="http://creativecommons.org/ns#DerivativeWorks"></cc:permits>
                  </cc:license>
                </rdf:rdf>
              </metadata>
            <desc>Created with Snap</desc><g transform="matrix(1,0,0,1,15,9.8906)" class="root"><g transform="matrix(1,0,0,1,10,0)" class="regexp match"><path d="M42,87.26565H102"></path><g class="match-fragment" transform="matrix(1,0,0,1,0,75.6094)"><path d="M10,11.65625q-10,0 -10,10v1.65625q0,10 10,10h32q10,0 10,-10v-1.65625q0,-10 -10,-10M52,26.65625l5,-5m-5,5l-5,-5"></path><g class="escape" transform="matrix(1,0,0,1,10,0)"><g class="label"><rect width="32" height="23.3125" rx="3" ry="3"></rect><text x="0" y="0" transform="matrix(1,0,0,1,5,16.6563)"><tspan>digit</tspan></text></g></g><text x="0" y="0" transform="matrix(1,0,0,1,19.2188,44.5)" class="repeat-label"><tspan>14 times</tspan><title><text x="0" y="0">repeats 15 times in total</text></title></text></g><g class="match-fragment" transform="matrix(1,0,0,1,67,0)"><path d="M0,87.26565q10,0 10,-10v-67.15625020446777q0,-10 10,-10h150.265625q10,0 10,10v67.15625020446777q0,10 10,10"></path><g class="subexp" transform="matrix(1,0,0,1,15,10)"><rect rx="3" ry="3" class="subexp-box" transform="matrix(1,0,0,1,0,11.2969)" width="160.265625" height="120.75"></rect><text x="0" y="0" transform="matrix(1,0,0,1,0,11.2969)" class="subexp-label"><tspan>group #1</tspan></text><g transform="matrix(1,0,0,1,10,21.2969)" class="regexp match"><path d="M42,55.96875H67"></path><g class="match-fragment" transform="matrix(1,0,0,1,0,44.3125)"><path d="M10,11.65625q-10,0 -10,10v1.65625q0,10 10,10h32q10,0 10,-10v-1.65625q0,-10 -10,-10M52,26.65625l5,-5m-5,5l-5,-5"></path><g transform="matrix(1,0,0,1,10,0)" class="escape"><g class="label"><rect width="32" height="23.3125" rx="3" ry="3"></rect><text x="0" y="0" transform="matrix(1,0,0,1,5,16.6563)"><tspan>digit</tspan></text></g></g><text x="0" y="0" transform="matrix(1,0,0,1,35.3281,44.5)" class="repeat-label"><tspan>once</tspan><title><text x="0" y="0">repeats 2 times in total</text></title></text></g><g class="match-fragment charset" transform="matrix(1,0,0,1,67,0)"><rect rx="3" ry="3" class="charset-box" transform="matrix(1,0,0,1,0,11.1875)" width="73.265625" height="89.5625"></rect><text x="0" y="0" transform="matrix(1,0,0,1,0,11.1875)" class="charset-label"><tspan>One of:</tspan></text><g transform="matrix(1,0,0,1,5,16.1875)"><g class="charset-range" transform="matrix(1,0,0,1,0,0)"><text x="0" y="0" transform="matrix(1,0,0,1,29.6406,15.7969)">-</text><g class="literal" transform="matrix(1,0,0,1,0,0)"><g class="label"><rect width="24.640625" height="23.1875" rx="3" ry="3"></rect><text x="0" y="0" transform="matrix(1,0,0,1,5,16.5938)"><tspan class="quote">“</tspan><tspan>0</tspan><tspan class="quote">”</tspan></text></g></g><g class="literal" transform="matrix(1,0,0,1,38.625,0)"><g class="label"><rect width="24.640625" height="23.1875" rx="3" ry="3"></rect><text x="0" y="0" transform="matrix(1,0,0,1,5,16.5938)"><tspan class="quote">“</tspan><tspan>9</tspan><tspan class="quote">”</tspan></text></g></g></g><g class="literal" transform="matrix(1,0,0,1,19.6484,28.1875)"><g class="label"><rect width="23.96875" height="23.1875" rx="3" ry="3"></rect><text x="0" y="0" transform="matrix(1,0,0,1,5,16.5938)"><tspan class="quote">“</tspan><tspan>x</tspan><tspan class="quote">”</tspan></text></g></g><g class="literal" transform="matrix(1,0,0,1,18.6406,56.375)"><g class="label"><rect width="25.984375" height="23.1875" rx="3" ry="3"></rect><text x="0" y="0" transform="matrix(1,0,0,1,5,16.5938)"><tspan class="quote">“</tspan><tspan>X</tspan><tspan class="quote">”</tspan></text></g></g></g></g></g></g></g></g><path d="M20,87.26565H0M242.265625,87.26565H277.265625"></path><circle cx="0" cy="87.26565" r="5"></circle><circle cx="277.265625" cy="87.26565" r="5"></circle></g></svg>
          